REM DIRINDEX 1\2,1\4,1\3\5,1\3\6,1\3\7
REM DIRNAME folder01,folder02,folder03,folder04,folder05,folder06,folder07
TITLE ""
FILE "CD2Track43.mp3" MP3
  TRACK 01 AUDIO
    TITLE "0:"
    INDEX 01 00:00:00
  TRACK 02 AUDIO
    TITLE "4:cjc081_1913"
    INDEX 01 00:00:29
  TRACK 03 AUDIO
    TITLE "0:"
    INDEX 01 00:04:54
  TRACK 04 AUDIO
    TITLE "5:cjc081_1914"
    INDEX 01 00:05:22
  TRACK 05 AUDIO
    TITLE "0:"
    INDEX 01 00:06:61
  TRACK 06 AUDIO
    TITLE "6:cjc081_1915"
    INDEX 01 00:07:41
  TRACK 07 AUDIO
    TITLE "0:"
    INDEX 01 00:08:52
  TRACK 08 AUDIO
    TITLE "5:cjc081_1916"
    INDEX 01 00:09:22
  TRACK 09 AUDIO
    TITLE "0:"
    INDEX 01 00:10:45
  TRACK 10 AUDIO
    TITLE "6:cjc081_1917"
    INDEX 01 00:11:11
  TRACK 11 AUDIO
    TITLE "0:"
    INDEX 01 00:12:34
  TRACK 12 AUDIO
    TITLE "5:cjc081_1918"
    INDEX 01 00:12:73
  TRACK 13 AUDIO
    TITLE "0:"
    INDEX 01 00:14:15
  TRACK 14 AUDIO
    TITLE "6:cjc081_1919"
    INDEX 01 00:14:62
  TRACK 15 AUDIO
    TITLE "0:"
    INDEX 01 00:16:73
  TRACK 16 AUDIO
    TITLE "5:cjc081_1920"
    INDEX 01 00:17:41
  TRACK 17 AUDIO
    TITLE "0:"
    INDEX 01 00:18:64
  TRACK 18 AUDIO
    TITLE "6:cjc081_1921"
    INDEX 01 00:19:38
  TRACK 19 AUDIO
    TITLE "0:"
    INDEX 01 00:21:27
  TRACK 20 AUDIO
    TITLE "5:cjc081_1922"
    INDEX 01 00:21:74
  TRACK 21 AUDIO
    TITLE "0:"
    INDEX 01 00:23:18
  TRACK 22 AUDIO
    TITLE "6:cjc081_1923"
    INDEX 01 00:23:65
  TRACK 23 AUDIO
    TITLE "0:"
    INDEX 01 00:25:05
  TRACK 24 AUDIO
    TITLE "5:cjc081_1924"
    INDEX 01 00:25:48
  TRACK 25 AUDIO
    TITLE "0:"
    INDEX 01 00:26:67
  TRACK 26 AUDIO
    TITLE "6:cjc081_1925"
    INDEX 01 00:27:39
  TRACK 27 AUDIO
    TITLE "0:"
    INDEX 01 00:30:20
  TRACK 28 AUDIO
    TITLE "5:cjc081_1926"
    INDEX 01 00:30:63
  TRACK 29 AUDIO
    TITLE "0:"
    INDEX 01 00:31:73
  TRACK 30 AUDIO
    TITLE "6:cjc081_1927"
    INDEX 01 00:32:47
  TRACK 31 AUDIO
    TITLE "0:"
    INDEX 01 00:34:10
  TRACK 32 AUDIO
    TITLE "5:cjc081_1928"
    INDEX 01 00:34:57
  TRACK 33 AUDIO
    TITLE "0:"
    INDEX 01 00:35:72
  TRACK 34 AUDIO
    TITLE "6:cjc081_1929"
    INDEX 01 00:36:44
  TRACK 35 AUDIO
    TITLE "0:"
    INDEX 01 00:38:28
  TRACK 36 AUDIO
    TITLE "5:cjc081_1930"
    INDEX 01 00:38:69
  TRACK 37 AUDIO
    TITLE "0:"
    INDEX 01 00:40:30
  TRACK 38 AUDIO
    TITLE "6:cjc081_1931"
    INDEX 01 00:40:70
  TRACK 39 AUDIO
    TITLE "0:"
    INDEX 01 00:42:21
  TRACK 40 AUDIO
    TITLE "5:cjc081_1932"
    INDEX 01 00:42:65
  TRACK 41 AUDIO
    TITLE "0:"
    INDEX 01 00:44:16
  TRACK 42 AUDIO
    TITLE "6:cjc081_1933"
    INDEX 01 00:44:61
  TRACK 43 AUDIO
    TITLE "0:"
    INDEX 01 00:47:36
  TRACK 44 AUDIO
    TITLE "5:cjc081_1934"
    INDEX 01 00:48:04
  TRACK 45 AUDIO
    TITLE "0:"
    INDEX 01 00:49:16
  TRACK 46 AUDIO
    TITLE "6:cjc081_1935"
    INDEX 01 00:49:61
  TRACK 47 AUDIO
    TITLE "0:"
    INDEX 01 00:51:07
  TRACK 48 AUDIO
    TITLE "5:cjc081_1936"
    INDEX 01 00:51:52
  TRACK 49 AUDIO
    TITLE "0:"
    INDEX 01 00:52:67
  TRACK 50 AUDIO
    TITLE "6:cjc081_1937"
    INDEX 01 00:53:39
  TRACK 51 AUDIO
    TITLE "0:"
    INDEX 01 00:54:72
  TRACK 52 AUDIO
    TITLE "5:cjc081_1938"
    INDEX 01 00:55:40
  TRACK 53 AUDIO
    TITLE "0:"
    INDEX 01 00:56:55
  TRACK 54 AUDIO
    TITLE "6:cjc081_1939"
    INDEX 01 00:57:29
  TRACK 55 AUDIO
    TITLE "0:"
    INDEX 01 00:59:47
  TRACK 56 AUDIO
    TITLE "5:cjc081_1940"
    INDEX 01 01:00:19
  TRACK 57 AUDIO
    TITLE "0:"
    INDEX 01 01:01:48
  TRACK 58 AUDIO
    TITLE "6:cjc081_1941"
    INDEX 01 01:02:20
  TRACK 59 AUDIO
    TITLE "0:"
    INDEX 01 01:03:51
  TRACK 60 AUDIO
    TITLE "5:cjc081_1942"
    INDEX 01 01:04:21
  TRACK 61 AUDIO
    TITLE "0:"
    INDEX 01 01:05:46
  TRACK 62 AUDIO
    TITLE "6:cjc081_1943"
    INDEX 01 01:06:20
  TRACK 63 AUDIO
    TITLE "0:"
    INDEX 01 01:07:74
  TRACK 64 AUDIO
    TITLE "5:cjc081_1944"
    INDEX 01 01:08:42
  TRACK 65 AUDIO
    TITLE "0:"
    INDEX 01 01:09:48
  TRACK 66 AUDIO
    TITLE "6:cjc081_1945"
    INDEX 01 01:10:24
  TRACK 67 AUDIO
    TITLE "0:"
    INDEX 01 01:12:09
  TRACK 68 AUDIO
    TITLE "5:cjc081_1946"
    INDEX 01 01:12:56
  TRACK 69 AUDIO
    TITLE "0:"
    INDEX 01 01:13:67
  TRACK 70 AUDIO
    TITLE "6:cjc081_1947"
    INDEX 01 01:14:43
  TRACK 71 AUDIO
    TITLE "0:"
    INDEX 01 01:17:32
  TRACK 72 AUDIO
    TITLE "5:cjc081_1948"
    INDEX 01 01:18:00
  TRACK 73 AUDIO
    TITLE "0:"
    INDEX 01 01:19:07
  TRACK 74 AUDIO
    TITLE "6:cjc081_1949"
    INDEX 01 01:19:54
  TRACK 75 AUDIO
    TITLE "0:"
    INDEX 01 01:20:67
  TRACK 76 AUDIO
    TITLE "5:cjc081_1950"
    INDEX 01 01:21:35
  TRACK 77 AUDIO
    TITLE "0:"
    INDEX 01 01:22:50
  TRACK 78 AUDIO
    TITLE "6:cjc081_1951"
    INDEX 01 01:23:20
  TRACK 79 AUDIO
    TITLE "0:"
    INDEX 01 01:24:51
  TRACK 80 AUDIO
    TITLE "5:cjc081_1952"
    INDEX 01 01:25:21
  TRACK 81 AUDIO
    TITLE "0:"
    INDEX 01 01:26:34
  TRACK 82 AUDIO
    TITLE "6:cjc081_1953"
    INDEX 01 01:27:12
  TRACK 83 AUDIO
    TITLE "0:"
    INDEX 01 01:28:72
  TRACK 84 AUDIO
    TITLE "5:cjc081_1954"
    INDEX 01 01:29:41
  TRACK 85 AUDIO
    TITLE "0:"
    INDEX 01 01:30:66
  TRACK 86 AUDIO
    TITLE "6:cjc081_1955"
    INDEX 01 01:31:36
  TRACK 87 AUDIO
    TITLE "0:"
    INDEX 01 01:33:31
  TRACK 88 AUDIO
    TITLE "5:cjc081_1956"
    INDEX 01 01:34:01
  TRACK 89 AUDIO
    TITLE "0:"
    INDEX 01 01:35:43
  TRACK 90 AUDIO
    TITLE "6:cjc081_1957"
    INDEX 01 01:36:17
  TRACK 91 AUDIO
    TITLE "0:"
    INDEX 01 01:37:40
  TRACK 92 AUDIO
    TITLE "5:cjc081_1958"
    INDEX 01 01:38:10
  TRACK 93 AUDIO
    TITLE "0:"
    INDEX 01 01:38:73
  TRACK 94 AUDIO
    TITLE "6:cjc081_1959"
    INDEX 01 01:39:64
  TRACK 95 AUDIO
    TITLE "0:"
    INDEX 01 01:41:52
  TRACK 96 AUDIO
    TITLE "5:cjc081_1960"
    INDEX 01 01:42:20
  TRACK 97 AUDIO
    TITLE "0:"
    INDEX 01 01:43:39
  TRACK 98 AUDIO
    TITLE "6:cjc081_1961"
    INDEX 01 01:44:15
  TRACK 99 AUDIO
    TITLE "0:"
    INDEX 01 01:46:51
  TRACK 100 AUDIO
    TITLE "5:cjc081_1962"
    INDEX 01 01:47:21
  TRACK 101 AUDIO
    TITLE "0:"
    INDEX 01 01:48:28
  TRACK 102 AUDIO
    TITLE "6:cjc081_1963"
    INDEX 01 01:49:04
  TRACK 103 AUDIO
    TITLE "0:"
    INDEX 01 01:50:72
  TRACK 104 AUDIO
    TITLE "7:cjc081_1964"
    INDEX 01 01:52:38
  TRACK 105 AUDIO
    TITLE "0:"
    INDEX 01 02:03:16
